#!OML:ASF F:\VICON\USERDATA\INSTALL\rory3\rory3.ASF
:FULLY-SPECIFIED
:DEGREES
124
root 1.0398294406777848 18.095722106443233 44.67887949979201 2.3750956277119615 0.5546383795838727 0.8812885616814827
lfemur -13.218181097209103 2.073006437853577 -21.50944422707584
ltibia 64.07458381111155
lfoot 2.2925624808046563 -10.418454743482831
ltoes -6.421783907156917
rfemur -21.48155200401461 4.88654143486011 27.142145802613744
rtibia 54.818593213521766
rfoot -0.07581217630940534 -4.405575782397292
rtoes -0.665138824347707
lowerback 12.363808669239942 -0.2638593940936578 -0.4625604338450111
upperback -0.8762603828051064 -0.1606460283102158 1.6872888776222086
thorax -8.258994024028974 0.2658267084807737 1.9392354434660923
lowerneck -20.021930578247495 -3.663585002559634 -1.8839322949399662
upperneck 10.06485793419648 -5.168049636985708 2.9349677137591375
head 6.356188540225618 -2.2917849429878325 0.7819756391635299
lclavicle 4.287488207731266e-15 5.75886165290891e-17
lhumerus -45.42767548981155 -13.65525070607698 96.38221038936497
lradius 110.15527413511789
lwrist 28.748793142054073
lhand -29.63161839103698 3.3165794691382406
lfingers 7.125019999999998
lthumb -3.0908825808913205 32.638886062597514
rclavicle 4.28752700038245e-15 5.761646213958064e-17
rhumerus -49.749492547091826 13.135736240978456 -99.52587688160018
rradius 105.82264550621476
rwrist -9.38796021106526
rhand -20.420864012345223 36.44816747811651
rfingers 7.125019999999998
rthumb 6.018801825449916 6.391681548671174
125
root 1.0000898035257395 18.011673131598158 42.3518856748799 2.0519502152527975 0.11298596861244758 0.6687927078638665
lfemur -13.626823720822486 2.5519627317494873 -20.825694887523312
ltibia 66.3061046037901
lfoot 3.139645045745759 -9.674437506204272
ltoes -6.466207560714083
rfemur -21.88470888208822 4.695000743065881 26.838353615149135
rtibia 54.369185069995844
rfoot -0.7846873817048564 -4.711419253554104
rtoes -0.5773316955141705
lowerback 12.357037590540942 -0.2854455325777767 -0.43959194238450716
upperback -0.8174754083725218 -0.0009558692474092023 1.7421595097358624
thorax -8.256477471351937 0.28734388191500015 1.81115150181308
lowerneck -19.97145197241465 -3.626268848157191 -1.8186805770668533
upperneck 9.953712060301307 -5.242816462787422 2.9104257628781456
head 6.370182455265072 -2.2755640139564193 0.7853655976984804
lclavicle 4.287488207731266e-15 5.75886165290891e-17
lhumerus -45.15544237481379 -13.47603513707393 96.57731160918998
lradius 110.142902312678
lwrist 28.746460568974715
lhand -29.626215404336545 3.3741345829721427
lfingers 7.125019999999998
lthumb -2.987021700459295 32.66001136106612
rclavicle 4.28752700038245e-15 5.761646213958064e-17
rhumerus -49.697855221883316 13.00781139451624 -99.42135973610569
rradius 105.75575679670492
rwrist -9.596479923865251
rhand -20.42941351191863 36.45056492222418
rfingers 7.125019999999998
rthumb 6.003039790176771 6.348547507094728
126
root 1.045671244053538 18.05868744948568 46.00847444482514 2.1691715852953344 0.689851688456419 1.1142551428095047
lfemur -14.553291730191262 2.9977254610079447 -20.208699151300333
ltibia 67.84986819451893
lfoot 3.9319799711405503 -9.52543736270782
ltoes -6.242694866401162
rfemur -19.166113966212656 5.36874923857406 28.32291323516297
rtibia 53.57222249157088
rfoot -1.8424105843696652 -5.168462229692811
rtoes -0.6655809648820401
lowerback 12.36871491895049 -0.3045543351123525 -0.45039226838929314
upperback -0.7481856459160569 0.2076819701674515 1.7800242033932308
thorax -8.307542473577534 0.28752679308626505 1.611765149988988
lowerneck -20.007881607717124 -3.7069030196062647 -1.83805169408293
upperneck 9.962218793091044 -5.247046211728897 2.9695015910380556
head 6.4003438129902115 -2.2754896530511295 0.7789366009630906
lclavicle 4.287488207731266e-15 5.75886165290891e-17
lhumerus -44.10825846737467 -13.262197735644943 96.89725058516154
lradius 110.18514135998423
lwrist 28.593787442330303
lhand -29.654884885018806 3.3086546972792568
lfingers 7.125019999999998
lthumb -2.8780214714126444 32.77473105168084
rclavicle 4.28752700038245e-15 5.761646213958064e-17
rhumerus -49.58423793684138 12.8815741977016 -99.28832852220562
rradius 105.71866251144945
rwrist -9.77282882790051
rhand -20.39485113218953 36.49895670825292
rfingers 7.125019999999998
rthumb 6.0524502968863985 6.402852468640599
127
root 0.9889759167864434 17.94709675160767 43.20137931360509 1.7798359921571383 0.118437964140366 0.8691439136670427
lfemur -14.341322248232546 3.6850282865660997 -19.388236170832396
ltibia 68.748864578823
lfoot 4.576092300493542 -10.52416412281732
ltoes -6.39804680394697
rfemur -20.04516540183137 5.269474884852272 27.896225391660682
rtibia 52.81194512420368
rfoot -2.576445738517812 -5.4597448191324895
rtoes 0.12230488490791225
lowerback 12.461540656390769 -0.2674222128333379 -0.35716609457956605
upperback -0.6454164875475403 0.562232252251579 1.8451257165185895
thorax -8.301098579009139 0.3354132904147771 1.422639699287905
lowerneck -19.879149532991036 -3.6974505868101675 -1.7891585334107518
upperneck 9.820671227438327 -5.3133369749745905 2.9702089857667873
head 6.4269991771302335 -2.261231702482801 0.7847015686214652
lclavicle 4.287488207731266e-15 5.75886165290891e-17
lhumerus -44.0360044767043 -13.136051969936503 96.96128252634631
lradius 110.04393320231193
lwrist 28.808667130563315
lhand -29.567646670725452 3.3246024199839517
lfingers 7.125019999999998
lthumb -2.8508700694244733 32.75893328940197
rclavicle 4.28752700038245e-15 5.761646213958064e-17
rhumerus -49.36247916855176 12.76926870619896 -99.13860640125336
rradius 105.73433896188075
rwrist -9.76607560609125
rhand -20.41138463347505 36.441584946462456
rfingers 7.125019999999998
rthumb 6.006051199305389 6.328596202618398
128
root 0.9912033663031206 17.932616024377545 44.86764703036466 1.7900499952729236 0.3544542673729041 1.0186769410308631
lfemur -17.44601508737266 3.447360627938939 -19.793890842326434
ltibia 69.15995840841826
lfoot 4.869003522095228 -11.422947778750475
ltoes -6.246414630587117
rfemur -19.471966550397834 5.46194738831087 28.701203960375345
rtibia 52.25981976700152
rfoot -3.3533613801414854 -5.471850701467566
rtoes 0.8147676471044918
lowerback 12.514286644435725 -0.2725442248908656 -0.4097607269916028
upperback -0.544662729028297 0.9131790801371823 1.9131819693430603
thorax -8.316736242936186 0.4037509601536194 1.2272926164669784
lowerneck -19.937429155620663 -3.823079860566585 -1.830924855132948
upperneck 9.737192559000375 -5.342556603636105 3.018882092622561
head 6.43071531907067 -2.2495785367278947 0.793839223670163
lclavicle 4.287488207731266e-15 5.75886165290891e-17
lhumerus -43.15478486404959 -13.01442421087999 97.11329095041945
lradius 109.7202574642206
lwrist 28.75841039104405
lhand -29.571719215073013 3.194530665583069
lfingers 7.125019999999998
lthumb -2.811119546322261 32.8133289583896
rclavicle 4.28752700038245e-15 5.761646213958064e-17
rhumerus -49.01434972631823 12.6863024794162 -98.98527716711243
rradius 105.76106453327745
rwrist -9.5174644412552
rhand -20.388904721000394 36.44395987512134
rfingers 7.125019999999998
rthumb 5.996135882446143 6.3178037176118025
129
root 0.9378126224468468 17.835911543245835 42.84518885177933 1.5841436873659864 -0.05589670089595955 0.8481645080556373
lfemur -15.960002073304533 4.101060152359124 -19.12220456228635
ltibia 69.21818884702354
lfoot 3.692800946065031 -11.970585137184553
ltoes -5.945023738531907
rfemur -17.795932234138554 5.808791392429317 29.020812368268164
rtibia 51.382806417521195
rfoot -2.7090928364635745 -5.04204988358415
rtoes 1.5566017996802899
lowerback 12.583384606375654 -0.25649402870143234 -0.40249792237536264
upperback -0.43620211488871463 1.3259944555445908 2.003443691051013
thorax -8.327081832476612 0.4863886221842183 1.0465840841879461
lowerneck -19.84779206638522 -3.828057058743143 -1.7913982580516241
upperneck 9.702514781662726 -5.383372405565627 3.0291417995744627
head 6.425178870371267 -2.2296444625489222 0.8069007127046082
lclavicle 4.287488207731266e-15 5.75886165290891e-17
lhumerus -43.946687979227995 -12.973670288023314 97.012772467371
lradius 109.53744186130072
lwrist 28.897071994169377
lhand -29.58116754066129 3.1416616656589693
lfingers 7.125019999999998
lthumb -2.823576574015609 32.827614459627966
rclavicle 4.28752700038245e-15 5.761646213958064e-17
rhumerus -48.56269529308144 12.644237051164612 -98.86105262797865
rradius 105.68568230709562
rwrist -9.275098877969363
rhand -20.4523724412882 36.366881141750106
rfingers 7.125019999999998
rthumb 5.933205526184917 6.238601593174992
130
root 0.9386780242398485 17.82229919054901 44.26629863052203 1.6202462103020057 0.15834680536065593 0.9123227203581812
lfemur -17.796016527817503 3.9519371864839807 -19.503753099029463
ltibia 68.64228144083054
lfoot 2.8501080550937994 -11.486545426197807
ltoes -5.625429722775059
rfemur -16.838596869416605 6.090592384590435 29.549528619941437
rtibia 50.52741533433198
rfoot -2.1837052357036564 -4.536340766004922
rtoes 2.2206323162838917
lowerback 12.633056482741086 -0.24843576877177997 -0.375307230048034
upperback -0.3772017605323963 1.620945351504761 2.0489528285741043
thorax -8.400147303774377 0.5243841979981395 0.737315338763412
lowerneck -19.836806070066416 -3.915035319351521 -1.8148043376677914
upperneck 9.738355146241398 -5.4196938740689715 3.04283590141058
head 6.391400999900587 -2.2375607936462907 0.8062797163670327
lclavicle 4.287488207731266e-15 5.75886165290891e-17
lhumerus -45.11012388149016 -12.977373665105265 96.84679682458756
lradius 109.53689593741994
lwrist 28.877459228576132
lhand -29.510235975783182 3.2077821266221695
lfingers 7.125019999999998
lthumb -2.885944097162454 32.77623166350654
rclavicle 4.28752700038245e-15 5.761646213958064e-17
rhumerus -47.98166890302717 12.656422519498104 -98.77730305277531
rradius 105.5676764090982
rwrist -9.215180327187174
rhand -20.446090136332575 36.40918863909261
rfingers 7.125019999999998
rthumb 5.880570424742054 6.170427370309984
131
root 0.898119313624034 17.76247965566612 42.63158833557634 1.5357672517334524 -0.1552223088111519 0.7577693731462003
lfemur -19.345891489063835 3.674511792204591 -19.891357191972265
ltibia 67.37914513502321
lfoot 2.3993999052977486 -10.785417988131744
ltoes -5.342378488781365
rfemur -17.034972997769636 6.044055721385632 29.583074911062784
rtibia 50.35402106132618
rfoot -2.3581268637015995 -4.301667428370006
rtoes 2.6311231054433546
lowerback 12.701876153970156 -0.19172575349966037 -0.22271255905532894
upperback -0.38997580620232863 1.7944519103786678 2.041850686409326
thorax -8.37566195638562 0.6821006754327268 0.6451045867057027
lowerneck -19.680972254478352 -3.8741586288159975 -1.7471063418021238
upperneck 9.926059251276275 -5.397097312653177 3.080611258106778
head 6.364769929553824 -2.27085710615613 0.7909418943375383
lclavicle 4.287488207731266e-15 5.75886165290891e-17
lhumerus -46.427020589441966 -12.799781368364139 96.83109698641579
lradius 109.49302264191057
lwrist 28.7333720907374
lhand -29.461507204144382 3.2470895952393386
lfingers 7.125019999999998
lthumb -2.9481939660973517 32.667089947538784
rclavicle 4.28752700038245e-15 5.761646213958064e-17
rhumerus -47.33231114809453 12.71887138748679 -98.72929915934058
rradius 105.47230732987535
rwrist -9.30780851483834
rhand -20.508285583805737 36.3603945131762
rfingers 7.125019999999998
rthumb 5.917981299574736 6.181678778797705
